<svg xmlns="http://www.w3.org/2000/svg" width="256" height="256" viewBox="0 0 256 256">
  <defs>
    <linearGradient id="bg" x1="28" y1="24" x2="226" y2="228" gradientUnits="userSpaceOnUse">
      <stop offset="0" stop-color="#0e1f1b"/>
      <stop offset=".55" stop-color="#174538"/>
      <stop offset="1" stop-color="#286a53"/>
    </linearGradient>
    <linearGradient id="flow" x1="58" y1="56" x2="198" y2="184" gradientUnits="userSpaceOnUse">
      <stop offset="0" stop-color="#8ff0c3"/>
      <stop offset="1" stop-color="#f2d26c"/>
    </linearGradient>
  </defs>
  <rect width="256" height="256" rx="52" fill="url(#bg)"/>
  <path d="M164 30h38c13.255 0 24 10.745 24 24v38L164 30z" fill="#2f8165" opacity=".95"/>
  <path d="M72 72h108v24h-64v24h50v24h-50v42H72z" fill="#f7f7f0"/>
  <path d="M64 180c19-24 37-36 57-36 22 0 34 14 48 14 11 0 22-6 35-18" fill="none" stroke="url(#flow)" stroke-width="18" stroke-linecap="round"/>
  <circle cx="66" cy="180" r="9" fill="#8ff0c3"/>
  <circle cx="202" cy="140" r="9" fill="#f2d26c"/>
</svg>
